<svg xmlns="http://www.w3.org/2000/svg" width="100%" height="100%" preserveAspectRatio="none" version="1.0"><path d="M22.09 67.76c2.11-3.6-4.16-36.26 8.72-43.28 13.79-7.52 18.3-5.14 21.32-8.62 2.5-2.89 1.35-6.5 8.5-8.74 8.02-2.52 31.23-6.23 57.6-5.54 26.24.69 30.04 3.52 42.23 7.92 6.57 2.37 16.36 5.74 17.69 8.91 2.77 6.57 7.41 2.04 9.36 6.49 1.91 4.33 7.36 16.26 8.31 28.5 5.53.01 10.53.22 14.36 4.05 3.83 3.84 7.61 9.3 8.62 21.2.7 8.25 2.3 28.47 2.67 41.18.23 8.27 1.05 23.85-.86 27.78-1.15 2.37-10.79 11.17-11.7 12.96-.28 1.79 4.86-.78 10.29 3.09 4.9 3.5 5.2 9.83 5.46 13.97.39 6.29.86 32.79-.96 36.92-2.66 6.05-11.99 11.44-17.31 13.43.71 10.46-3.44 12.11-3.44 12.11s-.77 10.62-3.3 14.07c-2.88 3.93-9.52 7.51-20.33 10.42-23.61 6.36-65.47 4.2-71.85 4.05-9.35-.21-29.61-1.07-38.52-3.41-4.37-1.14-15.77-7.65-15.77-7.65s-7.43-5.11-10.63-7.03c-3.19-1.91-7.26-3.52-9.04-5.47-3.75-4.11-5.01-7.85-5.01-7.85s-9.26 1.06-14.02-7.86c-2.17-4.06-9.12-30.7-9.95-37.74-.46-3.86-1.26-34.09.02-37.92s11.92-15.03 10.54-16.85c-1.96-2.58-12.93-15.4-13.53-28.36-.46-9.76 2.06-21.01 3.46-24.8.67-1.82 3.17-7.55 8.24-12.67 5.08-5.12 5.16-2.03 8.83-3.26z" fill-rule="evenodd" stroke="#000" stroke-width="3" fill="#3771c8"/><path fill-rule="evenodd" fill="#986601" d="M168 53.25c13.89 1.82 32.88-1.38 39.97 3.99 4.06 3.07 9.13 9.51 10.14 21.41.7 8.26 2.31 28.47 2.67 41.19.23 8.27 1.05 23.85-.86 27.78-.7 1.44-6.61 8.04-12.47 13.27-4.02.22-10.35-.31-40.15-3.35 3.8-25.56.95-90.9.7-104.29z"/><path fill-rule="evenodd" fill="#986601" d="M185.09 158.71c11.06.97 16.2 1.3 22.79 1.96 1.67.17 7.96.95 10.35 2.9 5.39 4.4 5.2 9.82 5.46 13.97.39 6.29.71 32.48-1.11 36.61-1.36 3.08-6.34 7.13-11.29 10.5-2.42 1.65-15.24 5.87-25.41 5.49-1.81-10.07-1.43-68.71-.79-71.43z"/><path d="M93.8 266.72c-20.91-.72-28.49-3.23-35.78-7.03-2.94-1.54-9.78-6.18-15.56-9.7-2.84-1.73-5.91-3.09-8.09-4.81-2.47-1.96-5.44-5.34-6.58-8.84-1.29-3.96-8.42-136.38-6.2-169.74.58-8.69.03-13.4.16-19.12.29-12.88 1.85-16.92 4.3-21.15 2.11-3.66 13.86-8.54 17.77-7.47 3.76 1.03 10.96 7.72 13.47 12.34 5.41 9.97 7.12 14.96 10.16 26 5.21 18.9 6.68 29.6 7.8 39.88 1.11 10.2 2.66 16.42 3.77 19.75 1.12 3.34-.94 24.77-1.67 35.72-.58 8.72-2.38 19.87-2.65 31.08-.27 11.48-.21 16.25-.15 23.26.06 5.87-.52 10.44.18 18.64.63 7.38 2.69 14.68 4.56 19.73 4.27 11.57 15.06 22.58 14.51 21.46z" fill-rule="evenodd" stroke="#000" stroke-width="2" fill="#556b2f"/><path d="M14.17 69.7C5.95 76.78.58 90.8.97 104.76c.43 15.26 10.85 29.55 16.44 31.72 3.78 1.47 41.5.34 41.5.34s4.93-.96 7.46-3.55c2.52-2.6 2.99-2.97 3.91-4.92 1.53-3.24.9-11.18.9-12.66s-1.3-13.94-2.05-19.77c-.33-2.57-1.77-12.66-2.85-19.79-.48-3.13-2.47-7.85-6.07-8.59-3.61-.74-29.37-.74-30.81-.74s-12.13.23-15.23 2.9z" fill-rule="evenodd" stroke="#000" stroke-width="1.014" fill="#986601"/><path d="M15.99 72.29C7.91 79.42 4.37 93.26 5.3 106.22c1.08 14.95 5.93 22.97 13.07 27.38 5.16 3.18 27.43 1.53 27.43 1.53s12.77-.41 15.9-2.16c1.88-1.05 4.24-1.73 6.5-6.35 1.57-3.22 1.14-9.08 1.14-10.56s-1.29-10.43-1.89-17.97c-.42-5.19-2.26-14.69-3.31-21.65-.47-3.13-3.31-6.19-6.91-6.93-3.61-.74-28.17-.44-29.61-.44s-8.56.5-11.63 3.22z" fill-rule="evenodd" stroke="#000" stroke-width="1.014" fill="#986601"/><path d="M17.95 69.61s27.81-1.77 31.38-.8c3.58.96 6.75 1.82 8.31 5.68 1.57 3.86 2.36 13.56 1.87 21.38-1.65-.12-1.05-.08-2.6-.06-.18-5.04.06-8.58-.57-12.75-.68-4.47-.94-7.79-6.08-9.96-5.15-2.17-35.98-.43-35.98-.43l3.67-3.06zM60.1 100.3l-3.22.11s-2.6 5.98-3.02 9.6c-.43 3.7 2.77 4.09 4.95 3.99 2.45-.11 5.06-2.24 4.58-3.97-1.14-4.19-3.29-9.73-3.29-9.73zm-2.56 7.66c.37-.15 1.95-.23 2.43.09.54.37 1.04 1.41.72 2.3-.32.88-1.04 1.36-2.33 1.46-1.28.1-1.81-.81-2.02-1.69-.2-.88.74-1.97 1.2-2.16z" fill-rule="evenodd" stroke="#000" stroke-width="1.188" fill="#e3e2db"/><path d="M56.73 96s-1.21 1.06-1.85 2.77-1.4 3.89-.37 4.44 2.08-2.32 4.09-2.32c1.2 0 2.84 1.8 3.84 1.33 1.01-.47.15-2.41-.77-4-.91-1.58-1.96-2.21-1.96-2.21L56.73 96z" fill-rule="evenodd" stroke="#000" stroke-width="1.188" fill="#e3e2db"/><path stroke-width=".977" stroke="#000" fill-rule="evenodd" d="M14.77 134.98C13.19 139.6 4.56 150.72 4 154.74c-.82 5.94-.5 22.42-.37 29.96.14 8.77 7.73 37.65 9.49 41.24 1.85 3.79 3.94 10.36 14.22 10.58 3.76.08 9.89 1.54 22.64 1.93 4.1.12 13.99-.29 17.92-.6 4.64.14 1.14-14.14.01-19.49-.81-3.82-1.11-20.3-.51-31.2.58-10.45 5.37-30.72 6.17-38.51.37-3.65.17-7.9-1.1-9.27-2.11-2.27-4.67-2.06-7.06-2.63s-25.17.2-29.39.25c-3 .04-14.26-.04-21.25-2.02z"/><path d="M15.99 140.07c-2.36 1.75-6.3 7-8.59 14.27-1.66 5.29-.71 29.62-.59 36.6.13 8.1 6.3 28.99 7.9 32.31 1.69 3.5 3.6 9.58 12.97 9.78 3.43.07 9.02 1.43 20.66 1.78 3.75.11 12.77-.26 16.36-.55 4.23.13 1.04-13.08 0-18.03-.73-3.53-1-18.78-.46-28.86.52-9.66 4.9-28.42 5.63-35.62.34-3.37.15-7.31-1-8.57-1.93-2.1-4.27-1.91-6.45-2.43-2.18-.53-22.3-.39-26.15-.35-2.74.04-18.59-1.59-20.28-.33z" fill-rule="evenodd" stroke="#000" stroke-width=".897" fill="#986601"/><path d="M66.18 140.5c-7.63 3.68-9.57 5.09-13.63 12.15-2.73 4.74-4.95 17.27-5.36 21.85-2.61 29.44 9.53 47.6 9.04 55.42-1.65-.11-1.99-.08-3.54-.05.79-9.6-10.2-24.09-8.57-53.8.24-4.22.1-16.69 7.7-28.07 4.07-6.1 9.32-7.52 9.32-7.52l5.04.02z" fill-rule="evenodd" stroke="#000" stroke-width="1.188" fill="#e3e2db"/><g fill-rule="evenodd" stroke="#000" stroke-width="1.188" fill="#e3e2db"><path d="M47.35 188.864l-3.22.11s-2.6 5.976-3.02 9.596c-.43 3.7 2.77 4.09 4.95 3.99 2.45-.11 5.06-2.24 4.58-3.97-1.14-4.19-3.29-9.726-3.29-9.726zm-2.56 7.656c.37-.15 1.95-.23 2.43.1.53.36 1.04 1.41.72 2.29-.33.89-1.05 1.37-2.33 1.46-1.28.1-1.81-.81-2.02-1.69-.2-.88.74-1.97 1.2-2.16z"/><path d="M43.98 184.559s-1.21 1.064-1.85 2.771c-.64 1.708-1.41 3.9-.37 4.44 1.03.55 2.08-2.319 4.09-2.319 1.2 0 2.83 1.799 3.84 1.329s.15-2.409-.77-3.993c-.91-1.584-1.96-2.213-1.96-2.213l-2.98-.015z"/></g><g stroke="#000" fill="#556b2f" fill-rule="evenodd"><path stroke-width="2.715" d="M94.05 267.7c7.34 1.93 23.9 1.66 31.55 1.45 5.19-.15 40.29 1.69 59.39-5.74 8.8-3.4 14-7.3 16.3-11.35 2-3.57 1.8-15.75 1.8-15.75s2.4-63.37 1-79.051c-1.4-16.131-1.5-46.975-3.5-58.313-62.1-1.382-86.9 2.679-122.94-.242 1.11 10.144 1.93 17.065 2.91 20.352.98 3.286-.87 24.625-1.25 35.607-.3 8.754-3.45 18.451-3.45 29.678 0 11.49-.43 15.1-.24 22.11.16 5.87-.98 12.76-.25 20.92.66 7.36 1.87 13.31 5.67 23.17 4.31 11.17 13.49 18.25 13.01 17.16z"/><path stroke-width="2.446" d="M100.55 266.96c6.61 1.74 20.72.69 27.64.5 4.7-.13 36.3 1.52 53.5-5.17 4.6-1.78 10.7-7.36 13.8-12.62 2.3-3.8 2.5-12.18 2.5-15.24-.1-18.92 2.2-53.675.9-67.806-1.2-14.538-2.5-58.058-4.4-68.275-55.9-1.246-75.04 1.607-107.92.588 2.62 9.948 2.66 47.526 1.61 57.822-1.57 15.52-4.42 44.651-4.25 50.971.15 5.29-.88 16.33-.22 23.69.6 6.63.88 10.38 4.3 19.26 3.88 10.07 12.97 17.26 12.54 16.28z"/></g><path d="M75.22 169.6l14.07.75s.96 8.66-1.52 10.19c-1.77 1.1-3.82 1-3.82 1l-.47 5.68 3.76-.06-.54 5.35-13.32-.76.23-4.6 4.12-.1.42-5.63s-2.88-.17-3.83-2.88c-.94-2.72 1.02-8.83.9-8.94zM195.48 159.74l11.31-.77s.41 5.8.42 11.89-.57 11.52-.57 11.52l-11.49.36.32-4.95 3.32-.09-.25-5.26s-2.2-.75-3.38-3.37.45-9.22.32-9.33z" fill-rule="evenodd" stroke="#000" stroke-width="2.124" fill="#e6e6e6"/><path d="M92.22 103.42s1.28 29.34 1.37 33.74c.14 7.09.67 19.25 4.18 21.17 3.98 2.17 9.62 2.27 15.6 2.24 7.88-.04 17.1-.18 29.68-1.05 21.03-1.46 37.9 1.11 46.01-3.59 3.32-1.92 3.35-5.39 3.4-10.29.12-13.32-3.4-46.37-3.55-48.28-2.25.49-26.55-3.61-52.13-2.21-23.01 1.27-44.7 8.42-44.56 8.27z" fill-rule="evenodd" stroke="#000" stroke-width="1.01" fill="#986601"/><path d="M92.59 103.33s.63 29.72.72 34.12c.15 7.08 1.71 17.01 3.38 19.75 1.67 2.73 5.13 3.98 9.45 2.79 4.33-1.18 9.06-3.39 10.09-8.8s-1-20.26-1.45-24.36c-.55-4.91-2.68-20.73-3.22-28.06-4.28.92-19.27 4.9-18.97 4.56z" fill-rule="evenodd" stroke="#000" stroke-width="1.01" fill="#986601"/><path d="M100.23 101.26l2.49-.56 2.57 57.42-2.79.32-2.27-57.18z" fill-rule="evenodd" stroke="#000" stroke-width="1.01" fill="#e3e2db"/><path d="M104.51 136.67l-3.23-.01s-2.82 5.88-3.37 9.47c-.56 3.69 2.62 4.2 4.8 4.18 2.45-.02 5.14-2.05 4.73-3.8-.99-4.23-2.93-9.84-2.93-9.84zm-2.85 7.55c.38-.13 1.97-.15 2.43.19.52.39.98 1.45.63 2.32s-1.09 1.33-2.38 1.38c-1.28.05-1.78-.88-1.95-1.77s.8-1.94 1.27-2.12z" fill-rule="evenodd" stroke="#000" stroke-width="1.188" fill="#e3e2db"/><path d="M101.29 132.24s-1.24 1.02-1.94 2.7c-.71 1.69-1.55 3.84-.54 4.43 1.01.58 2.16-2.24 4.18-2.17 1.19.04 2.76 1.91 3.79 1.47 1.02-.43.23-2.4-.62-4.02-.86-1.62-1.89-2.28-1.89-2.28l-2.98-.13z" fill-rule="evenodd" stroke="#000" stroke-width="1.188" fill="#e3e2db"/><g fill-rule="evenodd" stroke="#000" stroke-width="2" fill="#556b2f"><path d="M51.94 16.74c-1.62 2.04-6.54 2.06-5.56 2.31.47.12 3.25 2.44 6.5 5.52 3.42 3.23 6.39 8.49 8.13 11.53 2.56 4.48 7.46 18.543 10.89 33.634 1.23 5.436 2.37 14.328 3.45 20.601 2.02 11.668 3.63 22.081 4.05 23.643.99 3.703 4.12 3.554 7.92 2.37 4.88-1.523 25.76-5.542 32.47-5.66 6.69-.117 25.38-1.303 34.66-.739 14.62.892 32.65 4.334 35.34 4.579 2.68.244 11.97 1.904 11.55-5.999-.31-5.792-1.25-15.017-1.93-19.452-.83-5.345-3.33-30.654-4.36-35.903-1.28-6.56-2.54-10.444-4.03-15.224-1.52-4.91-3.22-10.88-5.77-14.74-8.69-1.24-5.08-2.78-9.68-6.75-1.73-1.52-13.79-6.11-24.69-9.89-6.48-2.25-12.49-3.27-19.61-3.89-20.05-1.75-40.99.11-46.39.48-5.17.36-25.76 3.88-28.2 6.07-2.42 2.17-3.68 6.17-4.74 7.51z"/><path d="M55.53 19.15c20.89 18.76 22.58 53.247 24.59 69.407.83 6.634 3.55 28.229 7.35 27.046 4.88-1.524 25.76-5.542 32.47-5.661 6.69-.117 25.37-1.302 34.65-.739 14.62.893 33.35 3.925 35.95 4.645 7.81 2.165 3.52-12.081 2.77-22.665-.82-11.429-3.77-29.168-5.48-36.703-1.61-7.097-7.52-30.78-12.12-38.76-1.72-1.52-13.78-6.11-24.69-9.89-6.48-2.25-12.48-3.28-19.6-3.9-20.05-1.74-40.99.12-46.39.49-5.17.35-25.74 3.89-28.21 6.07-7 6.18-5.95 6.47-1.29 10.66z"/></g><path d="M126.48 266.9c-8.7.02-18.6 1.66-26.02-4.01-6.86-4.97-11.35-13.22-10.83-21.79-.06-9.41.16-19.12 3.39-28.06 3.21-8.58 10.08-15.8 18.89-18.62 14.21-5.66 29.84-6.13 44.94-5.59 10.55.92 21.62 3.05 30.21 9.61 5.62 6.04 5.77 14.82 7.02 22.51 1.12 10.65 1.69 22.73-5.15 31.71-6.15 7.95-16.27 11.81-26.11 11.98-12.07 1.28-24.2 2.09-36.34 2.26z" fill-rule="evenodd" stroke="#000" fill="#986601"/><path d="M129.05 267c-7.87.05-16.95 1.49-23.41-4.14-5.74-4.52-9.14-11.77-8.53-19.1-.02-10.98.4-23.18 7.97-31.93 5.6-6.8 14.58-9.11 22.82-10.96 10.47-1.83 21.24-2.22 31.8-1.06 7.9 1.09 16.21 3.09 22.36 8.43 4.74 5.98 4.75 14.02 5.78 21.24.96 9.52.63 20.61-6.88 27.62-5.64 5.63-13.71 7.86-21.49 8.06-10.11 1.02-20.26 1.69-30.42 1.84z" fill-rule="evenodd" stroke="#000" stroke-width=".867" fill="#795100"/><path d="M132.4 267.05c-7.48.1-16.21 1.37-22.14-4.34-4.98-4.18-7.81-10.72-7.18-17.22-.16-10.69.6-22.94 8.84-30.79 6.56-6.07 15.76-7.85 24.31-9.19 12.6-1.29 25.83-1.58 37.79 3.2 4.15 1.68 8.3 4.29 9.65 8.82 2.31 6.78 2.73 14.07 3.09 21.17.27 7.77-2.01 16.23-8.61 20.98-6.38 5.23-14.92 5.56-22.76 6.15-7.65.67-15.32 1.11-22.99 1.22z" fill-rule="evenodd" stroke="#000" stroke-width=".796" fill="#986601"/><g fill="#8f6000" fill-rule="evenodd"><path d="M216.02 107.06c.24-11.29.95-22.46-.75-31.3-1.69-8.83-7.62-15.45-10.67-15.57s-3.92 11.81-.82 23.79c3.1 11.99 3.06 21.32 2.71 29.26-.2 4.66.23 24.05 4.69 13.92 4.47-10.14 4.73-14.88 4.84-20.1zM211.09 181.58c-.36 6.51.12 6.65 3.43 2.75 3.06-3.6-.25 10.96 3.43 23.4 4.38 14.85 3.36-26 3.11-31.33-.39-8.45-10.49-18.01-9.81-6.41.19 3.18.18 5.25-.16 11.59zM16.69 78.5c-4.66 2.8-8.03 20.88-6.77 28.04.72 4.04.67 6.9 2.12 10.12 2.21 4.88 5.14 11.12 7.92 12.34 4.6 2.03 11.51 2.51 20.05 1.84 8.54-.68 20.61.25 23.98-3.72s-18.87-2.35-15.82-12.33c3.12-10.2-13.86.14-16.36-3.34-2.18-3.04 3.34-18.66-4.98-13.54-10.86 6.7-6.11-5.24-6.87-9.27-.67-3.54 1.25-12.87-3.27-10.14zM56.88 187.68c1.54 2.67 1.59 5.37 2.25 9.27 1 5.84.3 7.39 1.35 13.01 1.22 6.6-.08 16.22-1.78 7.28-1.59-8.34-5.88-10.72-6.07-12.81-.24-2.84 3.72-2.89 2.54-6.86-1.14-3.85.74-11.56 1.71-9.89zM17.89 144.53c-4.66 2.8-6.07 7.85-6.8 16.05-.67 7.52.5 22.58.74 32.58.15 6.31 2.53 15.38 6.01 24.12 2.48 6.21 6.07 9.21 18.73 11.73 27.97 5.56-7.05-5.89-11.32-15.41-6.22-13.86-6.78-40.16-2.06-57.21 3.4-12.29 21.4-6.8 20.63-10.83-.67-3.54-21.41-3.76-25.93-1.03zM137.54 136.75c1.05-10.64 8.86 4.16 11.97 7.46 4.06 4.3 30.28 4.43 31.4 5.99 3.07 4.26-13.62 4.5-19.08 4.91-13.33 1.02-37.05.38-41.86.38-1.14 0-1.91-1.15-1.5-2.53 1.48-4.97 1.31-12.77.38-18.57-.83-5.24-2.51-11.61-2.58-15.12-.07-3.37 2.03-3.59 3.74-1.34 3.09 4.09 16.48 29.46 17.53 18.82zM130.14 195.6c-2.63-3.6-11.32-.73-16.34 1.5-2.51 1.11-8.22 3.47-10.74 6.19-2.69 2.9-5.85 7.56-7.48 11.62-1.14 2.85-2.23 10.37-3.28 24.66 3.86-20.04 6.48-28.26 12.82-32.81 12.74-9.15 27.55-7.71 25.02-11.16z"/></g><path fill-rule="evenodd" fill="#986601" d="M131.25 230.85c1.05-10.64 11.85 13.52 14.97 16.82 4.06 4.3 30.28 4.43 31.4 5.99 3.07 4.26-13.62 4.5-19.09 4.91-13.33 1.02-29.55 1.51-34.36 1.51-7.88 0-14.51.25-15.06-19.22-.15-5.3 3.93-14.62 3.86-18.13-.06-3.37 2.04-3.59 3.74-1.34 1.32 1.74.38 13.34 4.81 15.01 7.6 2.85 9.12.56 9.73-5.55z"/><g fill-rule="evenodd" stroke="#000" stroke-width="1.188" fill="#e3e2db"><path d="M146.66 210.597l-3.123-.787s-4.155 5.02-5.563 8.382c-1.439 3.436 1.528 4.698 3.65 5.206 2.385.574 5.483-.75 5.501-2.544.067-4.342-.464-10.257-.464-10.257zm-4.581 6.646c.397-.042 1.937.32 2.307.77.409.492.608 1.643.056 2.4-.563.763-1.388 1.025-2.643.756-1.258-.259-1.515-1.28-1.472-2.184.052-.9 1.257-1.687 1.752-1.742z"/><path d="M144.617 205.526s-1.458.687-2.546 2.15c-1.089 1.463-2.436 3.356-1.587 4.163.837.814 2.642-1.652 4.573-1.094 1.153.332 2.22 2.513 3.321 2.341s.812-2.273.367-4.05c-.435-1.774-1.27-2.67-1.27-2.67l-2.858-.84z"/></g><g fill-rule="evenodd" stroke="#000" stroke-width="1.188" fill="#e3e2db"><path d="M153.553 217.718l-2.981 1.222s-.362 6.507.502 10.048c.882 3.619 4.018 2.872 6.028 2.021 2.259-.954 3.966-3.858 2.915-5.314-2.525-3.532-6.464-7.977-6.464-7.977zm.26 8.069c.294-.27 1.748-.893 2.313-.75.622.153 1.465.96 1.47 1.897 0 .949-.508 1.649-1.677 2.178-1.166.539-1.979-.13-2.481-.883-.494-.755.01-2.104.374-2.442z" stroke-width="1.18798812"/><path d="M148.897 214.852s-.765 1.419-.772 3.242c-.006 1.823.033 4.146 1.196 4.291 1.157.158 1.145-2.897 3.03-3.595 1.125-.417 3.278.704 4.062-.088s-.696-2.311-2.11-3.477c-1.403-1.169-2.606-1.394-2.606-1.394l-2.8 1.021z" stroke-width="1.18798812"/></g></svg>